<svg version="1.2" xmlns="http://www.w3.org/2000/svg" viewBox="0 0 798 707" width="798" height="707"><style>.s0{fill:#3c3fa8}.s1{fill:#fdf926}.s2{fill:#f02f26}.s3{fill:#fefefe}</style><path fill-rule="evenodd" class="s0" d="m367.2 0.1c1 0 28.9 6.2 62 13.9c33.2 7.7 86.8 20.2 178.2 41.5l6.1 11c3.4 6 12.3 22.2 19.9 36c7.6 13.7 21 37.8 45.5 82l0.8 33.4c0.7 28.1 1 33.4 2.3 34c0.8 0.5 6.7 1.8 13 3.1c6.3 1.3 11.9 2.7 12.5 3.1c0.7 0.5 0.3 5.9-1.1 15.6c-1.2 8.1-5.9 39.3-10.5 69.3c-4.5 30-8.4 54.7-8.6 55c-0.3 0.3-9.3-0.5-20.1-1.8c-10.8-1.3-27.1-3.2-36.2-4.2c-9.1-1.1-21.8-2.6-28.3-3.2c-10.3-1.1-11.9-1.1-12.7 0.2c-0.5 0.8-2.4 6-4.1 11.5c-2.4 7.3-4.1 10.8-6.3 13c-1.7 1.6-12.3 10.2-23.5 19c-11.2 8.8-28.8 22.6-39 30.7c-18.3 14.5-18.7 14.8-23.6 14.8c-2.8 0-42.6-2.5-88.5-5.5c-45.9-3-85.3-5.7-87.5-6c-3.8-0.5-4.7-1.4-21-21.4c-16.3-20.1-17.2-21-21-21.5c-2.2-0.2-4.5-0.1-5.2 0.2c-0.7 0.4-9.6 8.7-38.3 36.2h-5.3c-2.8 0-15.1-0.4-27.2-1c-12.1-0.5-39.3-1.5-60.4-2.2c-21.1-0.7-38.7-1.5-39.3-1.8c-0.5-0.3-0.9-5.7-1-12c-0.1-6.3 0.2-13.1 1.5-18.5l13.6 0.8c7.5 0.4 27.1 1.2 43.6 1.7c16.5 0.5 37.4 1.2 63 2.1l18.2-18c10.1-10 19.1-18.1 20-18.1c1-0.1 9-0.1 17.8 0c10.7 0.1 16.6 0.5 17.7 1.3c1 0.7 7 7.7 13.4 15.7c6.4 8 13.9 17.2 21.3 26.5l17.8 1.3c9.8 0.7 23.9 1.7 31.3 2.2c7.4 0.5 20.2 1.4 28.5 2c8.2 0.5 22.4 1.5 31.5 2c9.1 0.6 21.8 1.5 28.2 2c6.5 0.6 14 1 16.8 1c4.9 0 5.2-0.2 25.7-16.3c11.4-8.9 25.2-19.7 30.7-24.1c5.6-4.3 11.5-9 13.3-10.5c2.8-2.3 4.1-5.1 15.9-40.6l3.4-0.4c1.9-0.2 7.8 0.2 13 0.8c5.2 0.6 13.1 1.6 17.5 2.1c4.4 0.5 12.3 1.4 17.5 2c5.2 0.6 13.1 1.5 17.5 2c4.4 0.5 10.9 1.3 14.5 1.7c3.6 0.5 7.2 0.7 8 0.6c1.1-0.2 1.9-2.8 2.8-8.6c0.7-4.5 1.7-10.7 2.2-13.7c0.5-3 1.3-8.4 1.9-12c0.5-3.6 1.5-9.9 2.1-14c0.6-4.1 1.5-10 2-13c0.5-3 1.5-8.7 2.2-12.7c0.7-4 1.1-7.5 0.8-7.8c-0.3-0.3-2.3-1-4.5-1.5c-2.2-0.6-8.3-1.9-13.5-3c-5.2-1.1-13.8-2.9-19-4.1c-5.2-1.1-11.1-2.3-13-2.6c-2.8-0.5-3.7-0.2-4.6 1.3c-0.6 1-1.4 4.6-1.8 7.9c-0.3 3.3-1 9.1-1.5 13c-0.6 3.8-1.5 10.1-2.1 14c-0.5 3.8-1.5 10.6-2.1 15c-0.6 4.4-1.4 10.3-1.8 13.2c-0.3 2.8-1.1 5.7-1.6 6.2c-0.7 0.8-3.2 0.8-8.5 0c-4.1-0.6-10.4-1.7-20.5-3.5l0.2-4c0.1-2.1 0.7-7.7 1.3-12.4c0.6-4.7 1.5-10.8 2-13.5c0.5-2.8 1.4-8.8 2-13.5c0.6-4.7 1.5-11.4 2-15c0.5-3.6 1.4-9.7 1.9-13.5c0.5-3.9 1.5-10.8 2.1-15.5c0.6-4.7 1.4-9.9 1.6-11.5c0.2-1.7 0.8-3.6 1.2-4.3c0.6-1.2 2.5-1 10.7 0.6c5.5 1.2 16.5 3.5 24.5 5.2c8 1.7 15.6 3.4 17 3.7c1.9 0.4 2.6 0 3-1.3c0.3-1.1 0.3-12.9-0.6-50.9l-21.1-38c-11.6-20.9-25.4-45.7-40-72l-4.9-1.3c-2.7-0.7-8.7-2.1-13.4-3.2c-4.7-1.1-12.3-2.9-17-4c-4.7-1.1-14.4-3.4-21.5-5c-7.2-1.6-16.6-3.8-21-4.9c-4.4-1-18.1-4.2-30.5-7.1c-12.4-2.9-26.1-6.1-30.5-7.1c-4.4-1.1-11.8-2.8-16.5-3.9c-4.7-1.1-17.3-4-28-6.5c-10.7-2.5-23.2-5.4-27.8-6.5c-8.2-2-8.2-2-24.5 0c-8.9 1.2-39.4 5-67.7 8.5c-28.3 3.6-52.7 6.5-54.3 6.5c-1.7 0-2.9-0.6-3.2-1.8c-0.3-0.9-1.1-7.3-1.9-14.2c-0.8-6.9-1.1-12.8-0.8-13.2c0.4-0.3 32.4-4.7 71.2-9.6c38.8-4.9 71.3-9 72.2-9.1zm-187 51c1.6-0.1 22 3.1 45.5 6.9c23.6 3.9 60.3 10 81.8 13.5c21.4 3.5 54.3 8.9 73 12c18.7 3 36.5 5.9 39.5 6.5c3 0.5 19.4 3.2 36.5 6c17 2.8 34.6 5.7 39 6.5c4.4 0.9 8.2 1.8 8.5 2.1c0.3 0.2-0.6 4.4-2 9.2c-1.3 4.8-3.2 10.9-5.7 18.7l-5.4-0.1c-3 0-8.6-0.6-12.4-1.3c-3.9-0.7-9.5-1.7-12.5-2.1c-3-0.5-8.4-1.4-12-2c-3.6-0.6-9-1.5-12-2c-3-0.5-8.3-1.4-11.8-2c-3.4-0.5-9-1.5-12.5-2c-3.4-0.6-8.9-1.5-12.2-2.1c-3.3-0.5-8.7-1.4-12-1.9c-3.3-0.6-8.5-1.4-11.5-2c-3-0.5-8.2-1.4-11.5-1.9c-3.3-0.6-8.9-1.5-12.5-2.1c-3.6-0.6-9.4-1.6-13-2.1c-3.6-0.6-8.8-1.4-11.5-1.9c-2.8-0.5-8.2-1.4-12-2c-3.9-0.6-9.3-1.5-12-2c-2.8-0.5-7.9-1.3-11.5-1.9c-3.6-0.6-9.2-1.5-12.5-2.1c-3.3-0.5-8.7-1.4-12-2c-3.3-0.5-8.9-1.4-12.5-2c-3.6-0.6-9.1-1.5-12.3-2c-3.1-0.6-8.4-1.5-11.7-2c-3.3-0.6-8.8-1.5-12.3-2c-3.4-0.6-8.9-1.5-12.2-2.1c-3.3-0.5-8.5-1.4-11.5-1.9c-3-0.5-8-1.3-16.5-2.3l-49.3 27.6c-27 15.2-49.8 27.5-50.5 27.3c-0.6-0.2-4.4-5.8-8.2-12.5c-4.5-7.8-6.6-12.5-6-13.1c0.5-0.5 20.1-11.6 43.5-24.8c23.4-13.2 47.2-26.7 53-30c5.8-3.4 11.7-6.1 13.2-6.1zm338.3 65.9c0.5 0 5.7 3.3 11.5 7.3c5.8 4.1 15.1 10.6 20.7 14.5c5.7 4 14.9 10.4 20.5 14.4c5.7 3.9 15 10.4 20.8 14.5c5.8 4 11.7 8.3 13.3 9.5c1.9 1.6 5.1 7.9 10.7 20.8c4.4 10.2 8 19.2 8 20c0 1-4.2 3-13.7 6.3c-7.6 2.6-14 4.7-14.3 4.7c-0.3 0.1-3.2-6.4-6.4-14.2c-3.2-7.9-6.8-15.3-8-16.4c-1.2-1.2-14.3-10.6-29.1-21c-14.9-10.3-32.2-22.4-38.5-26.9c-7.9-5.6-11.5-8.8-11.5-10.1c0.1-1 3.4-6.7 7.5-12.6c4.1-5.9 7.9-10.8 8.5-10.8zm-484.3 30c0.7 0 6.7 1 13.3 2.3c6.6 1.3 12.6 2.7 13.4 3.3c1 0.6 1.2 1.9 0.7 4.4c-0.3 1.9-1 5.5-1.5 8c-0.5 2.5-1.4 7.2-2.1 10.5c-0.7 3.3-1.6 7.8-2 10c-0.4 2.2-1.3 6.7-2 10c-0.7 3.3-1.5 7.8-2 10c-0.4 2.2-1.4 7.4-2.3 11.5c-0.8 4.1-1.7 8.6-2 10c-0.2 1.4-1.6 8.3-3.1 15.5c-1.4 7.1-3 15.2-3.6 18c-0.6 2.7-1.6 7-2.1 9.5c-0.5 2.5-1.7 8.1-2.5 12.5c-0.9 4.4-2.1 10.2-2.7 13c-0.5 2.7-1 6.3-1.1 8c-0.1 2.3 7.6 15.5 32.6 56c18 29.1 32.7 53.7 32.8 54.5c0 0.8-1.5 2.4-3.3 3.6c-1.7 1.2-7.2 4.5-21 12.9l-2.4-3c-1.3-1.7-2.8-3.6-3.3-4.3c-0.6-0.6-1-1.4-1-1.7c0-0.3-15.1-25-33.5-55c-18.4-30-33.5-55.4-33.5-56.5c0-1.1 7.2-37.7 16-81.3c8.8-43.5 16.2-79.8 16.5-80.5c0.2-0.6 1-1.2 1.7-1.2zm614.1 258c2.3 0.1 8.5 0.4 13.7 0.9c5.2 0.4 9.9 1 10.5 1.4c0.7 0.3 0.5 7.7-2 42.9l5 5.1c2.8 2.9 8.4 9 20 22l55-42.2l2.4 2.7c1.3 1.5 12 15 23.8 29.9c11.7 15 21.3 27.9 21.2 28.5c0 0.7-14.5 12.2-32.2 25.5c-17.7 13.4-46.4 35.1-63.7 48.3c-17.3 13.2-31.7 24-32 24c-0.3 0.1-6.1-6.4-13-14.2c-6.9-7.9-18.5-21.2-25.8-29.6c-7.3-8.3-13.7-15.2-14.2-15.2c-0.6 0-11.9 8.1-25.3 18c-13.3 9.9-31.1 23.1-39.5 29.3c-8.4 6.1-15.7 11.2-16.3 11.2c-0.5 0-5-4.5-9.9-10c-4.9-5.5-8.9-10.7-8.9-11.5c0-0.8 23.9-19.3 53-41c29.2-21.7 56.1-41.8 59.8-44.6c5.9-4.5 6.7-5.5 7.3-9.5c0.4-2.4 1.9-19.2 3.3-37.3c1.4-18 2.8-33.2 3.1-33.7c0.3-0.5 2.4-0.9 4.7-0.9zm-572.8 41.5l0.7 8.5c0.5 4.7 1.1 12.1 2.1 24.5l18.2 22.5c13.1 16.2 23.6 27.8 37.4 41.5c10.5 10.4 19.9 19.1 20.9 19.3c0.9 0.2 14.3-6.1 29.7-13.8c15.4-7.8 28.4-14 29-13.7c0.5 0.2 8.4 13.4 17.4 29.3c9.1 15.9 19.6 34.3 23.4 40.9c3.8 6.6 6.7 12.5 6.5 13.1c-0.2 0.7-12.2 9.9-26.8 20.5c-14.6 10.6-41.5 30.2-59.8 43.6c-18.2 13.4-33.8 24.3-34.5 24.3c-0.6 0-3.7-3-6.8-6.7c-3-3.8-24.1-29.4-46.7-57.1c-22.7-27.6-41.1-50.8-41-51.5c0.2-0.8 11-11 24.1-22.8c13.1-11.8 23.8-21.6 23.7-21.9c0-0.3-10.1-13.1-22.5-28.5c-17.8-22.1-22.5-28.6-22.6-31c0-1.7-0.6-11.1-1.3-21c-0.7-9.9-1.1-18.2-0.9-18.5c0.3-0.3 4.1-0.8 8.6-1.1c4.5-0.3 11.1-0.6 21.2-0.4zm411.7 90.6c1-0.1 2.4 0.9 3.2 2.1c0.7 1.3 6.2 11.7 12.1 23.3c5.9 11.5 14.6 28.6 19.2 38c4.6 9.3 8.3 17.4 8.1 17.9c-0.2 0.4-34.5 19-76.3 41.2c-41.8 22.1-76.2 40.2-76.5 40c-0.3-0.2-7.8-12-32.8-52.1l-9.3-0.8c-5.2-0.4-22.8-0.7-68.9-0.7v-15c0-11.2 0.3-15.1 1.2-15.2c0.7-0.1 13.3-0.2 28-0.3c14.6 0 27-0.3 27.5-0.7c0.4-0.5-2.7-6.4-7-13.3c-4.2-6.9-7.7-13.1-7.7-13.8c0-0.6 6.6-5 14.7-9.6c8.2-4.6 27.1-15.3 42-23.7c23.2-13.1 27.5-15.2 28.9-14.2c0.9 0.7 5.3 6.5 9.7 12.8c4.4 6.3 8.7 12.5 9.6 13.7c0.9 1.2 2.5 2.2 3.6 2.2c1.1 0 17.1-7.1 35.5-15.9c18.4-8.7 34.3-15.9 35.2-15.9z" /><path class="s1" d="m183.5 82.9l6 0.6c3.3 0.3 8.5 1 11.5 1.5c3 0.5 8.2 1.4 11.5 1.9c3.3 0.6 8.7 1.5 12 2c3.3 0.6 8.9 1.5 12.5 2.1c3.6 0.6 9 1.5 12 2c3 0.5 8.4 1.4 12 2c3.6 0.6 9.2 1.5 12.5 2c3.3 0.6 8.7 1.5 12 2c3.3 0.6 8.9 1.5 12.5 2.1c3.6 0.6 8.7 1.4 11.5 1.9c2.7 0.5 8.1 1.4 12 2c3.8 0.6 9.2 1.5 12 2c2.7 0.5 7.9 1.3 11.5 1.9c3.6 0.5 9.4 1.5 13 2.1c3.6 0.6 9.2 1.5 12.5 2.1c3.3 0.5 8.5 1.4 11.5 1.9c3 0.6 8.2 1.4 11.5 2c3.3 0.5 8.9 1.4 12.5 2c3.6 0.6 9.1 1.5 12.2 2c3.2 0.6 8.4 1.4 11.5 2c3.2 0.5 8.5 1.4 11.8 1.9c3.3 0.6 8.9 1.5 12.5 2.1c3.6 0.6 9 1.5 12 2c3 0.4 8.6 1.4 12.5 2.1c3.8 0.7 9.4 1.3 17.8 1.4l1.6-5.1c0.9-2.8 1.9-5.4 2.3-5.8c0.5-0.3 2.7 0.8 5 2.5c2.4 1.7 4.3 3.3 4.3 3.7c0 0.4-1.7 3.2-3.9 6.2c-2.1 3-3.6 6.2-3.4 7c0.3 0.8 13.9 10.9 30.4 22.4c16.4 11.5 34.2 24 39.4 27.7c5.2 3.7 10 7.3 10.6 8c0.6 0.8 3.4 7.2 6.3 14.4c2.8 7.1 5.5 13.6 5.9 14.4c0.6 1.1 1.5 1.1 5.7-0.3c2.7-0.9 5.3-1.6 5.7-1.6c0.5 0 1.5 2.4 2.3 5.2c0.8 2.9 1.4 5.4 1.2 5.4c-0.1 0.1-3.6-0.5-7.7-1.3c-6.2-1.2-7.6-1.2-8.2-0.1c-0.4 0.7-1 2.6-1.2 4.3c-0.2 1.6-1 6.8-1.6 11.5c-0.6 4.7-1.6 11.6-2.1 15.5c-0.5 3.8-1.4 9.9-1.9 13.5c-0.5 3.6-1.4 10.3-2 15c-0.6 4.7-1.5 10.7-2 13.5c-0.5 2.7-1.4 8.8-2 13.5c-0.6 4.7-1.2 10.3-1.5 16.4l6.5 1.2c3.6 0.6 10.1 1.7 14.5 2.3c4.4 0.7 8.1 1.1 8.3 0.9c0.1-0.2 0.7-3.5 1.3-7.3c0.5-3.9 1.4-10.2 1.9-14c0.6-3.9 1.5-10.2 2-14c0.6-3.9 1.5-10.2 2.1-14c0.5-3.9 1.2-9.7 1.5-13c0.4-3.3 1.2-6.9 1.8-7.9c0.9-1.5 1.8-1.8 4.6-1.3c1.9 0.3 7.8 1.5 13 2.6c5.2 1.2 14 3.1 19.5 4.2c5.5 1.2 11.3 2.4 12.9 2.8c1.5 0.3 3.3 1.2 4 1.9c0.8 1 0.8 2.8-0.1 7c-0.6 3.2-1.7 9.1-2.3 13.2c-0.6 4.1-1.5 10-2 13c-0.5 3-1.4 8.9-2 13c-0.6 4.1-1.5 10-2 13c-0.5 3-1.5 9-2.2 13.4c-0.7 4.3-1.8 8.1-2.5 8.5c-0.7 0.3-4.3 0.2-8-0.2c-3.7-0.4-10.4-1.2-14.8-1.7c-4.4-0.5-12.3-1.4-17.5-2c-5.2-0.6-13.1-1.5-17.5-2c-4.4-0.5-12.3-1.5-17.5-2.1c-5.2-0.6-11.1-1-16.4-0.4l-6.3 19c-5.5 16.5-6.8 19.3-9.6 21.6c-1.8 1.5-7.7 6.2-13.3 10.5c-5.5 4.4-19.3 15.2-30.7 24.1c-20.5 16.1-20.8 16.3-25.7 16.3c-2.8 0-10.3-0.4-16.8-1c-6.4-0.5-19.1-1.4-28.2-2c-9.1-0.5-23.3-1.5-31.5-2c-8.3-0.6-21.1-1.5-28.5-2c-7.4-0.5-21.5-1.5-49-3.5l-17.3-21.3c-9.4-11.7-17.8-21.5-18.5-21.7c-0.6-0.3-8.3-0.5-17-0.5c-8.6-0.1-16.5-0.1-17.5 0c-0.9 0-9.9 8.1-38.2 36.1l-16.5-0.6c-9.1-0.3-30-1-46.5-1.5c-16.5-0.5-36.1-1.3-57-2.3l-3 10.4l-4.2-6.3c-2.4-3.5-4.3-6.6-4.3-7.1c0-0.4 2-1.9 4.5-3.5c2.5-1.5 4.5-3.4 4.5-4.2c0-0.8-14.8-25.4-32.8-54.5c-25-40.5-32.7-53.7-32.6-56c0.1-1.7 0.6-5.3 1.1-8c0.6-2.8 1.8-8.6 2.7-13c0.8-4.4 2-10.1 2.6-12.8c0.5-2.6 1.5-6.8 2-9.5c0.6-2.6 2.2-10.6 3.6-17.7c1.5-7.2 2.9-14.1 3.1-15.5c0.3-1.4 1.2-5.9 2-10c0.9-4.1 1.9-9.3 2.3-11.5c0.5-2.2 1.3-6.7 2-10c0.7-3.3 1.6-7.8 2-10c0.4-2.2 1.3-6.7 2-10c0.7-3.3 1.6-8 2.1-10.5c0.5-2.5 1.2-6.2 1.7-8.2c0.7-3.5 0.5-3.8-2.5-5c-1.9-0.8-2.9-1.7-2.5-2.4c0.4-0.6 5.5-4.3 11.4-8.2c6-4 11.5-7.2 12.3-7.2c0.8 0 1.9 0.9 2.5 2c0.5 1.1 1.6 2 2.2 2c0.7 0 23.1-12.4 49.8-27.6z" /><path class="s2" d="m366.2 31.1c1 0 5.5 0.8 10 1.9c4.6 1.1 17.1 4 27.8 6.5c10.7 2.5 23.3 5.4 28 6.5c4.7 1.1 12.1 2.8 16.5 3.9c4.4 1 18.1 4.2 30.5 7.1c12.4 2.9 26.1 6.1 30.5 7.1c4.4 1.1 13.8 3.3 21 4.9c7.1 1.6 16.8 3.9 21.5 5c4.7 1.1 12.3 2.9 17 4c4.7 1.1 10.7 2.5 18.3 4.5l9.4 17c5.2 9.3 17.9 32.3 28.3 51c10.3 18.7 19.9 36.2 21.3 39c2.5 4.9 2.6 5.4 2.9 29.7c0.2 13.5 0.1 24.9-0.2 25.3c-0.3 0.3-4.9-0.3-10.3-1.4c-5.3-1.2-14-3-28.7-6.1l-1.5-5.8c-0.9-3.1-1.4-5.7-1.3-5.8c0.2 0 4-1.4 8.6-3c5.4-1.9 8.2-3.4 8.2-4.4c0-0.8-3.6-9.8-8-20c-5.6-12.9-8.8-19.2-10.7-20.8c-1.6-1.2-7.5-5.5-13.3-9.5c-5.8-4.1-15.1-10.6-20.8-14.5c-5.6-4-14.8-10.4-20.5-14.4c-5.6-3.9-14.9-10.4-20.7-14.5c-5.8-4-11-7.3-11.5-7.3c-0.6 0-2.6 2.3-4.5 5c-1.9 2.8-3.7 5.1-4 5.1c-0.3 0-2.5-1.5-5-3.2c-2.5-1.8-4.6-3.2-4.7-3.3c-0.1-0.1 0.8-3.6 2-7.8c1.2-4.3 2-8 1.7-8.2c-0.3-0.3-4.1-1.2-8.5-2.1c-4.4-0.8-22-3.7-39-6.5c-17.1-2.8-33.5-5.5-36.5-6c-3-0.6-20.8-3.5-39.5-6.5c-18.7-3.1-51.6-8.5-73-12c-21.5-3.5-50.3-8.3-64-10.5c-13.8-2.2-27.6-4.6-30.7-5.3c-3.6-0.8-5.4-1.6-4.9-2.2c0.5-0.6 4.6-3.8 9-7.3c5.1-3.9 8.3-5.7 8.5-5c0.2 0.7 0.7 2.5 1 4c0.5 2.2 1.2 2.8 3.3 2.8c1.6 0 28-3.2 58.8-7.1c30.8-3.8 60.5-7.6 66-8.3c5.5-0.8 10.8-1.4 11.7-1.5zm227.1 356.9c1.8 0 10.8 0.9 20.2 2c9.3 1 21.3 2.4 26.5 3c5.2 0.5 10.7 1.2 12.2 1.5c2.6 0.5 2.8 0.8 2.8 10.5h-5.5c-3 0-5.7 0.4-6 1c-0.3 0.5-1.6 15.7-3 33.7c-1.4 18.1-2.9 34.8-3.3 37.2c-0.6 4-1.4 5-7.3 9.5c-3.7 2.8-30.6 22.9-59.8 44.6c-29.1 21.7-53.1 40.2-53.1 41c0 0.8 1.1 2.6 2.5 4c1.4 1.4 2.5 3.1 2.5 3.7c0 0.7-1.6 2.3-3.6 3.5c-2.3 1.5-3.8 1.9-4.4 1.3c-0.4-0.6-5.6-10.5-11.5-22c-5.9-11.6-11.4-22-12.1-23.3c-0.8-1.2-2.1-2.2-2.9-2.2c-0.8 0-16.8 7.2-35.5 16c-18.7 8.8-34.8 16-35.8 16c-0.9 0-2.4-1.1-3.3-2.3c-0.9-1.2-5.2-7.4-9.6-13.7c-4.4-6.3-8.8-12.1-9.7-12.8c-1.4-1-5.7 1.1-28.9 14.2c-14.9 8.4-33.8 19.1-42 23.7c-8.1 4.6-14.7 9-14.7 9.6c0 0.7 3.5 6.9 7.7 13.8c4.3 6.9 7.4 12.8 7 13.3c-0.5 0.4-12.9 0.7-27.5 0.7c-14.7 0.1-27.3 0.2-28 0.3c-0.6 0.1-1.2 1.5-1.2 3.2c0 2.2-0.4 2.9-1.5 2.5c-0.8-0.3-2.2-0.5-3-0.5q-1.5 0-0.9-1.8c0.4-1.1-1.9-6-6.3-13.7c-3.8-6.6-14.3-25-23.4-40.9c-9-15.9-16.9-29.1-17.4-29.3c-0.6-0.3-13.6 5.9-29 13.7c-15.4 7.7-28.8 14-29.7 13.8c-1-0.2-10.4-8.9-20.9-19.3c-13.8-13.7-24.3-25.3-55.6-64l-0.6-8c-0.4-4.4-1-11.8-2.2-25l-10.5-0.5v-3.5c0-1.9 0.5-7 1.1-11.3c0.6-4.2 1.3-7.9 1.6-8.2c0.3-0.3 0.8 0.2 1.1 1c0.4 0.8 1.6 2.6 4.9 6.5l7.2-4.5c4.5-2.8 7.5-4.1 8-3.5c0.4 0.5 2.9 4 10.1 14.5l-0.3 8.5c-0.1 5.6 0.2 8.8 0.9 9.3c0.7 0.4 18.4 1.3 39.5 2c21.1 0.7 48.3 1.7 60.4 2.2c12.1 0.6 24.4 1 32.5 1l18.5-17.8c10.2-9.7 19.1-18 19.8-18.4c0.7-0.3 3-0.4 5.2-0.2c3.8 0.5 4.7 1.4 21 21.5c16.3 20 17.2 20.9 21 21.4c2.2 0.3 41.6 3 87.5 6c45.9 3 85.7 5.5 88.5 5.5c4.9 0 5.3-0.3 24-15.1c10.4-8.2 25.1-19.8 32.5-25.7c7.4-5.8 17.7-13.9 22.7-17.9c7.7-6 9.5-8 10.7-11.6c0.8-2.3 2.6-7.7 4.1-12c2.6-7.4 2.8-7.7 5.8-7.7z" /><path class="s0" d="m227.9 133.4c3.1 0.3 9 1 13.1 1.6c4.1 0.5 11.1 1.4 15.5 2c4.4 0.6 11.1 1.4 15 1.9c3.8 0.6 10.8 1.5 15.5 2.1c4.7 0.6 11.4 1.5 15 2c3.6 0.5 10.3 1.4 15 2c4.7 0.6 11.9 1.5 16 2.1c4.1 0.5 10.6 1.4 14.5 1.9c3.8 0.5 10.8 1.4 15.5 2c4.7 0.6 11.6 1.5 15.5 2.1c3.8 0.5 10.6 1.3 15 1.9c4.4 0.6 11.4 1.5 15.5 2c4.1 0.6 10.6 1.5 14.5 2c3.8 0.5 10.8 1.4 15.5 2c4.7 0.6 11.6 1.6 15.5 2.1c3.8 0.5 10.6 1.3 23 2.8l36.2 27.3c19.9 15 36.4 27.7 36.6 28.3c0.3 0.5 0.1 4.6-0.5 9c-0.5 4.4-1.3 10.9-1.8 14.5c-0.5 3.6-1.4 10.3-2 15c-0.6 4.7-1.6 11.6-2.1 15.5c-0.5 3.8-1.4 10.1-1.9 14c-0.5 3.8-1.4 10.1-1.9 14c-0.5 3.8-1.5 10.6-2.1 15c-0.6 4.4-1.5 11.1-2 15c-0.5 3.8-1.4 10.4-2 14.5c-0.5 4.1-1.3 10-1.6 13c-0.4 3-1.1 6.3-1.5 7.2c-0.5 1-14.3 8.4-30.7 16.4c-26.9 13.3-30.2 14.6-34.7 14.5c-2.8 0-8.2-0.5-12-1.1c-3.9-0.5-11.3-1.4-16.5-2c-5.2-0.6-12.7-1.5-16.5-2c-3.9-0.5-11.3-1.4-16.5-2c-5.2-0.6-12.7-1.5-16.5-2c-3.9-0.5-11.3-1.4-16.5-2c-5.2-0.6-12.7-1.5-16.5-2c-3.9-0.5-11.5-1.5-16.9-2.2c-5.5-0.7-10.5-1.8-11-2.3c-0.6-0.6-5.6-7.6-21.3-30l-4.9-0.8c-2.7-0.4-7.9-1.2-11.7-1.7c-3.7-0.6-9.9-1.5-13.7-2c-3.9-0.6-10-1.4-13.8-2c-3.7-0.5-10.3-1.4-14.7-2.1c-4.4-0.6-8.9-1.2-10-1.3c-1.3-0.1-7 6-37 41.6l-9.5-0.6c-5.2-0.4-16.3-1.1-24.5-1.7c-8.3-0.5-21.8-1.3-30-1.8c-8.3-0.4-15.5-1-16-1.3c-0.6-0.3-6.7-10.8-13.7-23.4c-6.9-12.6-17.2-31.1-22.7-41.2c-5.6-10-10.1-18.9-10.1-19.7c0-0.8 1-6.1 2.1-11.8c1.2-5.6 2.5-12 2.9-14.2c0.4-2.2 1.8-8.7 3-14.5c1.2-5.8 3.1-14.6 4.1-19.5c1.1-5 2.4-11.3 2.9-14c0.6-2.8 1.4-7 2-9.5c0.6-2.5 1.4-6.5 1.9-9c0.5-2.5 1.4-7.2 2-10.5c0.6-3.3 1.7-6.5 2.4-7.2c0.6-0.6 6.8-4 13.7-7.6c6.9-3.5 28.1-14.4 47.2-24.1c19.2-9.7 35.2-17.6 35.8-17.6c0.5 0 2.4 2.8 4 6.2c1.7 3.5 4.6 9.2 6.5 12.8c2.7 5.1 3.1 6.8 2.2 7.7c-0.7 0.6-13.4 7.3-28.2 14.9c-14.9 7.5-33.3 16.9-55 28.2l-1.4 6.4c-0.7 3.5-1.5 7.4-1.8 8.8c-0.2 1.4-1.7 8.6-3.3 16c-1.7 7.4-3.2 14.4-3.4 15.5c-0.3 1.1-2.1 10.2-4 20.2c-3.4 17.5-3.5 18.4-2 21.5c0.9 1.8 8 14.8 15.7 28.8c7.6 14 14.4 26 15.1 26.7c0.7 0.8 7.6 1.6 19.1 2.3c9.9 0.6 20.6 1.2 29.5 2l17.2-20.7c9.5-11.3 17.6-21.1 18-21.7c0.5-0.8 5.6-0.4 17.5 1.3c9.2 1.2 20.8 2.9 25.8 3.7c4.9 0.8 11.9 1.9 15.5 2.4c3.6 0.5 11.7 1.7 18 2.5c6.3 0.9 12.6 1.8 14 2c1.4 0.3 4.3 0.7 6.5 1c3.8 0.5 4.4 1.1 12.2 12.3c4.5 6.4 9.3 13.4 10.7 15.4c2 3 3.4 3.9 6.3 4.3c2.1 0.3 5.4 0.8 7.3 1c1.9 0.3 6.2 0.7 9.5 1.1c3.3 0.3 10.5 1.2 16 1.9c5.5 0.8 12.9 1.7 16.5 2.1c3.6 0.3 7.6 0.8 9 1c1.4 0.2 9.9 1.3 19 2.4c9.1 1.1 21.6 2.6 39 4.5l19.5-9.8c15.5-7.7 19.6-10.2 19.9-12c0.3-1.2 0.7-4.2 1-6.7c0.3-2.5 0.8-6.5 1.1-9c0.3-2.5 1-7.2 1.5-10.5c0.5-3.3 1.2-8.7 1.5-12c0.4-3.3 0.8-6.7 1-7.5c0.3-0.8 0.7-3.8 1-6.5c0.3-2.8 1-7.9 1.6-11.5c0.5-3.6 1.9-13.5 3.1-22c1.2-8.5 2.2-18 2.3-26.5l-26-19.6c-24.8-18.8-26.2-19.7-31.5-20.3c-3-0.4-8.4-1.1-12-1.7c-3.6-0.5-10.1-1.4-14.5-1.9c-4.4-0.5-11.4-1.4-15.5-2c-4.1-0.5-12.5-1.7-18.5-2.5c-6.1-0.9-18-2.5-26.5-3.6c-8.5-1.1-19.1-2.4-23.5-2.9c-4.4-0.5-10.9-1.4-14.5-1.9c-3.6-0.6-11.9-1.7-18.5-2.6c-6.6-0.8-14-1.8-16.5-2.1c-2.5-0.3-7.4-1-11-1.5c-3.6-0.5-13.5-1.8-22-2.9c-8.5-1.1-20.2-2.6-26-3.4c-5.8-0.8-13-1.7-16-2.1c-3-0.4-5.9-1-6.4-1.3c-0.5-0.4-0.6-3.7-0.2-7.7c0.4-3.9 1-9.7 1.4-13c0.4-3.3 1.2-6.6 1.7-7.4c0.6-1 2.3-1.2 6.4-0.7z" /><path class="s3" d="m213.7 152.1c0.7-0.1 2 0.1 2.8 0.4q1.5 0.5 1.5 4.5c0 2.2-0.5 4-1 4c-0.6 0-1 0.3-1 0.7c0 0.5 6.4 1.6 14.2 2.6c7.9 1 14.7 2.2 15.3 2.8c0.5 0.5 1.4 0.6 1.8 0.1c0.4-0.4 5.2-0.1 10.5 0.6c5.3 0.8 15.8 2.2 23.2 3.3c7.4 1 14.7 1.9 16.2 1.9c1.6 0 2.6 0.4 2.3 1c-0.3 0.6 0.4 0.8 1.7 0.4c1.3-0.3 7.2 0.1 13.3 1c6 0.8 17.1 2.3 24.7 3.3c7.5 1 13.4 2.1 13.2 2.5c-0.2 0.5 0.6 0.6 1.8 0.3c1.3-0.3 7.7 0.1 14.3 1c6.6 0.9 19 2.5 27.5 3.6c8.5 1.1 21.8 2.9 29.5 3.9c7.7 1 19.8 2.6 40 5.4l25.7 19.3c14.2 10.6 26.1 20.1 26.5 21c0.3 1-0.4 9-1.6 17.8c-1.2 8.8-3.5 25.2-5.1 36.5c-1.5 11.3-3.8 28.1-5 37.5c-1.2 9.3-2.3 18-2.6 19.2c-0.3 1.8-4.3 4.2-19.4 11.8c-15.6 7.8-19.8 9.5-23.5 9.5c-2.5 0-4.3-0.3-4.1-0.8c0.2-0.4-2.1-0.7-5.2-0.7c-3.2 0-10.4-0.6-16.2-1.4c-5.8-0.7-11-1.5-11.5-1.8c-0.6-0.3-3.5-0.7-6.5-0.8c-3-0.2-9.8-0.8-15-1.4c-5.2-0.7-16-1.9-23.8-2.9c-7.9-0.9-14.1-1.9-13.9-2.2c0.3-0.3-2.3-0.6-5.6-0.7c-3.4-0.1-8.1-0.4-10.5-0.7c-4.1-0.6-4.3-0.8-25-31.1l-6.4-1.2c-3.4-0.6-12-2-19.1-3c-7-1-12.7-2.1-12.7-2.6c0-0.4-1-0.5-2.3-0.2c-1.2 0.2-12.6-1-25.2-2.8c-12.7-1.9-22.5-3.5-21.8-3.8c0.7-0.2-2.3-0.5-14.2-0.8l-17.5 21c-9.6 11.5-18 21-18.5 21c-0.6 0-3.3 0-6 0c-2.8-0.1-10.1-0.3-16.3-0.6c-6.1-0.3-11-0.8-10.8-1.3c0.2-0.4-3-0.7-14.9-0.7l-5.8-10.5c-3.2-5.8-10.6-19.1-26.8-48.5l5.6-27.5c3.1-15.1 7-34.4 12-58.2l14-7.2c7.7-4.1 26.1-13.5 41-21.1c14.8-7.5 27.6-14.1 28.2-14.6c1-0.7 1-1.4 0-3.4c-0.6-1.4-1-2.7-0.7-3c0.3-0.3 2.1-0.9 4-1.4c1.9-0.5 4.1-0.9 4.7-1zm531.3 327.1c1.4-0.1 3.2 1.4 6 5c2.2 2.9 3.9 5.7 3.9 6.3c0 0.5-17.8 14.5-39.5 31c-21.8 16.5-40.1 30.1-40.7 30.3c-0.7 0.2-8-7.4-16.2-16.8c-8.3-9.4-15.1-17.7-15.3-18.5c-0.1-0.9 4.9-5.3 12.1-10.7c6.7-5.1 12.6-9.7 13.2-10.4c0.7-0.9 3.6 1.7 10.8 9.9c5.3 6.2 10.3 12.1 11.1 13.2c1.1 1.7 1.4 1.8 2.2 0.4c0.5-0.8 6.6-5.9 13.6-11.2c7.1-5.3 13.2-9.7 13.8-9.7c0.5 0 1.1-0.4 1.2-1c0.2-0.5 5.1-4.6 11-9.2c6-4.6 11.7-8.4 12.8-8.6zm-629.5 89.8c0.3 0 7.7 7.3 32.4 32.5l26.6-13.3c14.6-7.2 26.7-13.1 26.9-13c0.3 0.2 4.8 7.9 10 17.2c5.2 9.2 9.3 17.2 9.3 17.7c-0.1 0.5-13.5 10.6-29.7 22.5c-16.2 11.9-30.2 21.9-31 22.2c-0.8 0.3-2.2 1.3-3 2.3c-0.8 0.9-3.8 3.2-6.5 5.2c-4.2 3-5.3 3.4-6.6 2.4c-0.9-0.6-14.1-16.4-29.3-35c-15.2-18.5-27.6-34.1-27.6-34.6c-0.1-0.5 6.3-6.6 14-13.5c7.8-6.9 14.3-12.6 14.5-12.6zm358.5 8c0.9 0 4.1 5.1 8.5 14c4.6 9.2 6.7 14.3 6 14.9c-0.6 0.6-16.8 9.4-36 19.6c-19.3 10.3-41.4 22-49.3 26.1c-7.8 4.1-14.6 7.3-15.2 7.1c-0.5-0.1-9.3-13.7-19.5-30.2c-14.7-23.7-18.3-30.2-17.3-31.1c0.7-0.6 8.3-5 16.8-9.8c12.5-7 15.7-8.4 16.7-7.4c0.7 0.7 5.3 7.1 10.3 14.3c5 7.1 9.2 13.4 9.3 13.8c0.1 0.5 15.5-6.3 34.2-15.2c18.7-8.8 34.7-16 35.5-16.1z" /><path class="s0" d="m181.2 206c2.4 0.5 5.9 1.1 7.8 1.4c1.9 0.3 9.6 1.5 17 2.6c7.4 1.2 13.7 2.3 14 2.6c0.3 0.3-0.8 6.7-2.3 14.2c-1.6 7.5-3.5 16.8-4.3 20.7c-0.7 3.8-2.1 10.8-3.1 15.4c-1.3 6-2.3 8.5-3.6 9c-0.9 0.3-9.7-0.7-19.5-2.2c-9.7-1.6-19.2-3-21-3.3c-3-0.4-3.2-0.6-2.7-3.7c0.3-1.7 2.8-14.9 5.6-29.2c2.9-14.3 5.8-26.5 6.5-27.1c0.9-0.7 2.8-0.9 5.6-0.4zm207.1 16.4c1.2 0.3 5.1 1 8.7 1.5c3.6 0.6 10.3 1.6 15 2.2c4.7 0.5 10.7 1.3 13.5 1.6c2.7 0.3 5.2 0.9 5.5 1.4c0.3 0.4-2.1 15.1-5.3 32.6c-3.1 17.5-5.8 31.9-6 32.1c-0.1 0.1-1.6 0.3-3.2 0.3c-1.7 0.1-9.1-0.9-16.5-2.1c-7.4-1.2-16.4-2.6-20-3.1c-3.6-0.6-6.7-1.4-7-1.9c-0.3-0.5 1.6-11.9 4.2-25.2c2.7-13.4 5-25.2 5.2-26.3c0.2-1.1 0.7-3.8 1.1-6c0.4-2.2 1.2-4.8 1.7-5.8c0.6-1.1 1.7-1.6 3.1-1.3z" /></svg>